<svg data-v-423bf9ae="" xmlns="http://www.w3.org/2000/svg" viewBox="0 0 260.7031224825186 60" class="font"><!----><!----><!----><g data-v-423bf9ae="" id="db29f0b5-eafa-4efa-a361-c6760fcb7d60" fill="#F45F5F" transform="matrix(3.906250087311493,0,0,3.906250087311493,-2.5781237225164375,-19.02343700133497)"><path d="M7.20 16.21L7.20 16.21L7.20 16.21Q7.17 16.23 7.14 16.23L7.14 16.23L7.14 16.23Q7.11 16.23 7.03 16.23L7.03 16.23L7.03 16.23Q6.83 16.23 6.57 16.16L6.57 16.16L6.57 16.16Q6.31 16.10 6.07 16.01L6.07 16.01L6.07 16.01Q5.82 15.92 5.65 15.81L5.65 15.81L5.65 15.81Q5.47 15.69 5.43 15.61L5.43 15.61L5.43 15.61Q5.42 15.41 5.42 15.20L5.42 15.20L5.42 15.20Q5.42 14.99 5.42 14.80L5.42 14.80L5.42 14.80Q5.42 13.23 5.65 11.52L5.65 11.52L5.65 11.52Q5.88 9.81 6.41 7.83L6.41 7.83L6.41 7.83Q6.47 7.63 6.53 7.33L6.53 7.33L6.53 7.33Q6.59 7.03 6.66 6.68L6.66 6.68L6.66 6.68Q6.33 6.94 5.87 7.53L5.87 7.53L5.87 7.53Q5.40 8.11 4.89 8.90L4.89 8.90L4.89 8.90Q4.38 9.69 3.87 10.63L3.87 10.63L3.87 10.63Q3.36 11.58 2.94 12.55L2.94 12.55L2.94 12.55Q2.52 13.52 2.22 14.48L2.22 14.48L2.22 14.48Q1.92 15.43 1.85 16.24L1.85 16.24L1.85 16.24Q1.18 16.04 0.92 15.85L0.92 15.85L0.92 15.85Q0.66 15.65 0.66 15.37L0.66 15.37L0.66 15.37Q0.66 15.12 0.81 14.66L0.81 14.66L0.81 14.66Q0.97 14.20 1.25 13.57L1.25 13.57L1.25 13.57Q1.53 12.94 1.93 12.16L1.93 12.16L1.93 12.16Q2.34 11.38 2.83 10.49L2.83 10.49L2.83 10.49Q3.39 9.46 3.93 8.57L3.93 8.57L3.93 8.57Q4.47 7.67 4.98 6.94L4.98 6.94L4.98 6.94Q5.50 6.22 6.00 5.68L6.00 5.68L6.00 5.68Q6.50 5.15 6.99 4.87L6.99 4.87L6.99 4.87Q7.18 4.87 7.51 4.97L7.51 4.97L7.51 4.97Q7.84 5.07 8.15 5.21L8.15 5.21L8.15 5.21Q8.47 5.35 8.71 5.49L8.71 5.49L8.71 5.49Q8.96 5.64 8.99 5.74L8.99 5.74L8.99 5.74Q8.79 6.13 8.53 6.92L8.53 6.92L8.53 6.92Q8.26 7.70 7.99 8.69L7.99 8.69L7.99 8.69Q7.71 9.69 7.47 10.80L7.47 10.80L7.47 10.80Q7.22 11.91 7.08 12.94L7.08 12.94L7.08 12.94Q7.41 12.17 7.83 11.33L7.83 11.33L7.83 11.33Q8.26 10.50 8.74 9.68L8.74 9.68L8.74 9.68Q9.21 8.86 9.71 8.09L9.71 8.09L9.71 8.09Q10.21 7.32 10.68 6.69L10.68 6.69L10.68 6.69Q11.16 6.05 11.57 5.57L11.57 5.57L11.57 5.57Q11.98 5.10 12.31 4.87L12.31 4.87L12.31 4.87Q12.50 4.87 12.83 4.97L12.83 4.97L12.83 4.97Q13.16 5.07 13.47 5.21L13.47 5.21L13.47 5.21Q13.79 5.35 14.04 5.49L14.04 5.49L14.04 5.49Q14.28 5.64 14.31 5.74L14.31 5.74L14.31 5.74Q13.86 6.54 13.52 7.69L13.52 7.69L13.52 7.69Q13.19 8.83 12.96 10.09L12.96 10.09L12.96 10.09Q12.73 11.35 12.61 12.59L12.61 12.59L12.61 12.59Q12.49 13.83 12.49 14.81L12.49 14.81L12.49 14.81Q12.49 15.13 12.49 15.48L12.49 15.48L12.49 15.48Q12.49 15.83 12.52 16.21L12.52 16.21L12.52 16.21Q12.32 16.21 12.05 16.16L12.05 16.16L12.05 16.16Q11.77 16.11 11.52 16.03L11.52 16.03L11.52 16.03Q11.26 15.95 11.05 15.84L11.05 15.84L11.05 15.84Q10.84 15.74 10.75 15.61L10.75 15.61L10.75 15.61Q10.74 15.41 10.74 15.20L10.74 15.20L10.74 15.20Q10.74 14.99 10.74 14.80L10.74 14.80L10.74 14.80Q10.74 13.23 10.97 11.52L10.97 11.52L10.97 11.52Q11.20 9.81 11.73 7.83L11.73 7.83L11.73 7.83Q11.79 7.63 11.86 7.29L11.86 7.29L11.86 7.29Q11.93 6.96 12.00 6.59L12.00 6.59L12.00 6.59Q11.61 6.79 11.11 7.34L11.11 7.34L11.11 7.34Q10.61 7.90 10.10 8.69L10.10 8.69L10.10 8.69Q9.59 9.48 9.09 10.44L9.09 10.44L9.09 10.44Q8.60 11.41 8.20 12.41L8.20 12.41L8.20 12.41Q7.80 13.41 7.53 14.40L7.53 14.40L7.53 14.40Q7.25 15.39 7.20 16.21ZM15.82 15.67L15.82 15.67L15.82 15.67Q15.02 15.58 14.55 14.97L14.55 14.97L14.55 14.97Q14.07 14.35 14.07 13.40L14.07 13.40L14.07 13.40Q14.07 12.84 14.24 12.24L14.24 12.24L14.24 12.24Q14.41 11.63 14.71 11.07L14.71 11.07L14.71 11.07Q15.02 10.50 15.44 10.00L15.44 10.00L15.44 10.00Q15.86 9.49 16.35 9.13L16.35 9.13L16.35 9.13Q17.12 8.55 17.79 8.55L17.79 8.55L17.79 8.55Q18.24 8.79 18.68 9.55L18.68 9.55L18.68 9.55Q18.75 9.55 18.80 9.54L18.80 9.54L18.80 9.54Q18.86 9.53 18.93 9.53L18.93 9.53L18.93 9.53Q19.67 9.53 19.67 10.85L19.67 10.85L19.67 10.85Q19.67 11.73 19.38 12.52L19.38 12.52L19.38 12.52Q19.10 13.31 18.59 13.96L18.59 13.96L18.59 13.96Q18.07 14.60 17.37 15.04L17.37 15.04L17.37 15.04Q16.66 15.48 15.82 15.67ZM16.53 11.26L16.53 11.26L16.53 11.26Q16.30 11.58 16.09 11.96L16.09 11.96L16.09 11.96Q15.88 12.33 15.72 12.72L15.72 12.72L15.72 12.72Q15.57 13.10 15.48 13.46L15.48 13.46L15.48 13.46Q15.40 13.82 15.40 14.10L15.40 14.10L15.40 14.10Q15.40 14.43 15.51 14.74L15.51 14.74L15.51 14.74Q15.62 15.05 15.76 15.09L15.76 15.09L15.76 15.09Q16.39 14.95 16.92 14.57L16.92 14.57L16.92 14.57Q17.44 14.18 17.83 13.61L17.83 13.61L17.83 13.61Q18.21 13.03 18.43 12.31L18.43 12.31L18.43 12.31Q18.65 11.58 18.65 10.75L18.65 10.75L18.65 10.75Q18.65 10.39 18.61 10.18L18.61 10.18L18.61 10.18Q18.56 9.97 18.47 9.81L18.47 9.81L18.47 9.81Q17.85 10.00 17.37 10.40L17.37 10.40L17.37 10.40Q16.88 10.81 16.53 11.26ZM21.01 10.22L21.01 10.22L21.01 10.22Q21.01 9.97 21.05 9.74L21.05 9.74L21.05 9.74Q21.08 9.52 21.20 9.36L21.20 9.36L21.20 9.36Q21.31 9.20 21.50 9.11L21.50 9.11L21.50 9.11Q21.70 9.02 22.02 9.02L22.02 9.02L22.02 9.02Q22.22 9.02 22.46 9.06L22.46 9.06L22.46 9.06Q22.71 9.10 22.82 9.21L22.82 9.21L22.82 9.21Q22.76 9.45 22.73 9.63L22.73 9.63L22.73 9.63Q22.69 9.81 22.67 10.03L22.67 10.03L22.67 10.03Q22.65 10.25 22.64 10.55L22.64 10.55L22.64 10.55Q22.62 10.85 22.61 11.33L22.61 11.33L22.61 11.33Q22.58 12.28 22.52 13.03L22.52 13.03L22.52 13.03Q22.46 13.78 22.23 14.52L22.23 14.52L22.23 14.52Q22.23 14.57 22.27 14.57L22.27 14.57L22.27 14.57Q22.48 14.42 22.75 14.13L22.75 14.13L22.75 14.13Q23.02 13.83 23.31 13.46L23.31 13.46L23.31 13.46Q23.60 13.09 23.90 12.67L23.90 12.67L23.90 12.67Q24.19 12.25 24.44 11.84L24.44 11.84L24.44 11.84Q24.78 11.26 25.19 10.37L25.19 10.37L25.19 10.37Q25.59 9.49 25.86 8.48L25.86 8.48L25.86 8.48Q25.94 8.48 26.08 8.52L26.08 8.52L26.08 8.52Q26.21 8.55 26.34 8.60L26.34 8.60L26.34 8.60Q26.47 8.65 26.58 8.71L26.58 8.71L26.58 8.71Q26.68 8.76 26.73 8.81L26.73 8.81L26.73 8.81Q26.70 9.41 26.44 10.04L26.44 10.04L26.44 10.04Q26.18 10.67 25.82 11.26L25.82 11.26L25.82 11.26Q25.45 11.84 25.05 12.36L25.05 12.36L25.05 12.36Q24.64 12.88 24.30 13.26L24.30 13.26L24.30 13.26Q23.63 14.04 22.95 14.66L22.95 14.66L22.95 14.66Q22.27 15.27 21.34 15.85L21.34 15.85L21.34 15.85Q20.97 15.71 20.76 15.48L20.76 15.48L20.76 15.48Q20.55 15.25 20.55 14.99L20.55 14.99L20.55 14.99Q20.55 14.83 20.63 14.61L20.63 14.61L20.63 14.61Q20.71 14.39 20.80 14.05L20.80 14.05L20.80 14.05Q20.90 13.71 20.98 13.19L20.98 13.19L20.98 13.19Q21.06 12.67 21.06 11.87L21.06 11.87L21.06 11.87Q21.06 11.41 21.04 10.94L21.04 10.94L21.04 10.94Q21.01 10.47 21.01 10.22ZM26.53 14.24L26.53 14.24L26.53 14.24Q26.53 14.11 26.55 13.92L26.55 13.92L26.55 13.92Q26.57 13.73 26.63 13.42L26.63 13.42L26.63 13.42Q26.68 13.10 26.78 12.66L26.78 12.66L26.78 12.66Q26.87 12.21 27.01 11.58L27.01 11.58L27.01 11.58Q27.03 11.44 27.13 11.13L27.13 11.13L27.13 11.13Q27.23 10.82 27.39 10.48L27.39 10.48L27.39 10.48Q27.55 10.14 27.78 9.81L27.78 9.81L27.78 9.81Q28.01 9.49 28.34 9.34L28.34 9.34L28.34 9.34Q28.57 9.39 28.97 9.63L28.97 9.63L28.97 9.63Q29.36 9.86 29.64 10.26L29.64 10.26L29.64 10.26Q29.32 10.63 29.10 10.99L29.10 10.99L29.10 10.99Q28.88 11.35 28.71 11.75L28.71 11.75L28.71 11.75Q28.53 12.14 28.39 12.56L28.39 12.56L28.39 12.56Q28.24 12.98 28.06 13.44L28.06 13.44L28.06 13.44Q27.90 13.83 27.78 14.25L27.78 14.25L27.78 14.25Q27.65 14.66 27.64 14.97L27.64 14.97L27.64 14.97Q27.64 15.22 27.63 15.32L27.63 15.32L27.63 15.32Q27.62 15.43 27.55 15.43L27.55 15.43L27.55 15.43Q27.50 15.43 27.33 15.36L27.33 15.36L27.33 15.36Q27.16 15.29 26.98 15.14L26.98 15.14L26.98 15.14Q26.81 14.99 26.67 14.77L26.67 14.77L26.67 14.77Q26.53 14.55 26.53 14.24ZM29.20 8.16L29.20 8.16L29.20 8.16Q29.20 8.08 29.25 7.91L29.25 7.91L29.25 7.91Q29.18 7.84 29.13 7.70L29.13 7.70L29.13 7.70Q29.08 7.56 29.08 7.45L29.08 7.45L29.08 7.45Q29.08 7.32 29.11 7.11L29.11 7.11L29.11 7.11Q29.15 6.89 29.20 6.64L29.20 6.64L29.20 6.64Q29.26 6.38 29.34 6.11L29.34 6.11L29.34 6.11Q29.43 5.84 29.51 5.61L29.51 5.61L29.51 5.61Q29.68 5.61 29.93 5.71L29.93 5.71L29.93 5.71Q30.17 5.80 30.42 5.94L30.42 5.94L30.42 5.94Q30.67 6.09 30.88 6.27L30.88 6.27L30.88 6.27Q31.09 6.44 31.21 6.59L31.21 6.59L31.21 6.59Q31.05 6.75 30.80 7.02L30.80 7.02L30.80 7.02Q30.55 7.29 30.31 7.59L30.31 7.59L30.31 7.59Q30.07 7.90 29.88 8.16L29.88 8.16L29.88 8.16Q29.68 8.43 29.62 8.54L29.62 8.54L29.62 8.54Q29.46 8.51 29.33 8.39L29.33 8.39L29.33 8.39Q29.20 8.27 29.20 8.16ZM34.83 9.38L34.83 9.38L34.83 9.38Q34.78 10.25 34.52 10.87L34.52 10.87L34.52 10.87Q34.27 11.49 33.80 11.96L33.80 11.96L33.80 11.96Q33.33 12.43 32.66 12.81L32.66 12.81L32.66 12.81Q31.99 13.19 31.09 13.54L31.09 13.54L31.09 13.54Q31.09 13.62 31.09 13.71L31.09 13.71L31.09 13.71Q31.08 13.80 31.08 13.90L31.08 13.90L31.08 13.90Q31.08 14.08 31.11 14.28L31.11 14.28L31.11 14.28Q31.14 14.48 31.21 14.64L31.21 14.64L31.21 14.64Q31.28 14.81 31.40 14.92L31.40 14.92L31.40 14.92Q31.53 15.02 31.72 15.02L31.72 15.02L31.72 15.02Q32.10 15.02 32.47 14.85L32.47 14.85L32.47 14.85Q32.83 14.69 33.16 14.44L33.16 14.44L33.16 14.44Q33.49 14.20 33.78 13.91L33.78 13.91L33.78 13.91Q34.06 13.62 34.29 13.38L34.29 13.38L34.29 13.38Q34.43 13.51 34.52 13.62L34.52 13.62L34.52 13.62Q33.89 14.46 33.15 15.02L33.15 15.02L33.15 15.02Q32.40 15.57 31.72 15.72L31.72 15.72L31.72 15.72Q30.76 15.61 30.22 15.02L30.22 15.02L30.22 15.02Q29.68 14.42 29.68 13.58L29.68 13.58L29.68 13.58Q29.68 13.01 29.84 12.41L29.84 12.41L29.84 12.41Q30.00 11.82 30.29 11.26L30.29 11.26L30.29 11.26Q30.58 10.71 30.96 10.22L30.96 10.22L30.96 10.22Q31.35 9.73 31.79 9.37L31.79 9.37L31.79 9.37Q32.23 9.00 32.70 8.79L32.70 8.79L32.70 8.79Q33.17 8.58 33.63 8.58L33.63 8.58L33.63 8.58Q34.27 8.67 34.83 9.38ZM33.87 9.84L33.87 9.84L33.87 9.84Q33.49 9.90 33.08 10.15L33.08 10.15L33.08 10.15Q32.68 10.40 32.32 10.82L32.32 10.82L32.32 10.82Q31.96 11.24 31.67 11.80L31.67 11.80L31.67 11.80Q31.37 12.36 31.21 13.01L31.21 13.01L31.21 13.01Q32.33 12.45 33.07 11.63L33.07 11.63L33.07 11.63Q33.81 10.81 33.87 9.84ZM44.44 7.63L44.44 7.63L44.44 7.63Q44.44 8.40 44.05 9.10L44.05 9.10L44.05 9.10Q43.67 9.80 43.02 10.32L43.02 10.32L43.02 10.32Q42.36 10.85 41.49 11.16L41.49 11.16L41.49 11.16Q40.61 11.47 39.63 11.47L39.63 11.47L39.63 11.47Q39.28 11.47 39.08 11.38L39.08 11.38L39.08 11.38Q38.88 11.28 38.63 11.02L38.63 11.02L38.63 11.02Q37.93 12.54 37.48 13.82L37.48 13.82L37.48 13.82Q37.04 15.11 36.79 16.31L36.79 16.31L36.79 16.31Q36.26 16.18 35.92 15.87L35.92 15.87L35.92 15.87Q35.59 15.55 35.31 15.08L35.31 15.08L35.31 15.08Q35.45 14.81 35.64 14.38L35.64 14.38L35.64 14.38Q35.84 13.94 36.12 13.31L36.12 13.31L36.12 13.31Q36.40 12.67 36.77 11.78L36.77 11.78L36.77 11.78Q37.14 10.89 37.65 9.70L37.65 9.70L37.65 9.70Q37.87 9.16 38.04 8.75L38.04 8.75L38.04 8.75Q38.21 8.34 38.33 7.99L38.33 7.99L38.33 7.99Q38.46 7.63 38.56 7.28L38.56 7.28L38.56 7.28Q38.67 6.93 38.78 6.51L38.78 6.51L38.78 6.51Q38.12 6.72 37.57 7L37.57 7L37.57 7Q37.02 7.28 36.65 7.59L36.65 7.59L36.65 7.59Q36.53 7.50 36.39 7.34L36.39 7.34L36.39 7.34Q36.26 7.17 36.15 6.96L36.15 6.96L36.15 6.96Q36.04 6.76 35.95 6.55L35.95 6.55L35.95 6.55Q35.87 6.34 35.85 6.17L35.85 6.17L35.85 6.17Q36.26 5.89 36.86 5.66L36.86 5.66L36.86 5.66Q37.46 5.42 38.15 5.24L38.15 5.24L38.15 5.24Q38.84 5.07 39.57 4.97L39.57 4.97L39.57 4.97Q40.31 4.87 40.98 4.87L40.98 4.87L40.98 4.87Q41.78 4.87 42.42 5.07L42.42 5.07L42.42 5.07Q43.06 5.28 43.51 5.64L43.51 5.64L43.51 5.64Q43.96 6.01 44.20 6.51L44.20 6.51L44.20 6.51Q44.44 7.01 44.44 7.63ZM41.94 5.95L41.94 5.95L41.94 5.95Q41.41 5.95 40.85 6.03L40.85 6.03L41.02 6.29L41.02 6.29Q40.88 6.47 40.67 6.83L40.67 6.83L40.67 6.83Q40.46 7.20 40.21 7.71L40.21 7.71L40.21 7.71Q39.96 8.22 39.66 8.85L39.66 8.85L39.66 8.85Q39.35 9.48 39.02 10.18L39.02 10.18L39.02 10.18Q40.11 10.18 41.01 9.97L41.01 9.97L41.01 9.97Q41.90 9.77 42.54 9.41L42.54 9.41L42.54 9.41Q43.18 9.06 43.53 8.58L43.53 8.58L43.53 8.58Q43.89 8.11 43.89 7.56L43.89 7.56L43.89 7.56Q43.89 6.83 43.40 6.39L43.40 6.39L43.40 6.39Q42.91 5.95 41.94 5.95ZM48.33 9.52L48.33 9.52L48.33 9.52Q48.47 9.52 48.66 9.57L48.66 9.57L48.66 9.57Q48.85 9.62 49 9.70L49 9.70L49 9.70Q49.15 9.77 49.26 9.86L49.26 9.86L49.26 9.86Q49.36 9.94 49.36 10.01L49.36 10.01L49.36 10.01Q49.08 10.60 48.85 11.19L48.85 11.19L48.85 11.19Q48.61 11.79 48.44 12.33L48.44 12.33L48.44 12.33Q48.27 12.88 48.18 13.36L48.18 13.36L48.18 13.36Q48.09 13.83 48.09 14.18L48.09 14.18L48.09 14.18Q48.09 14.57 48.17 14.83L48.17 14.83L48.17 14.83Q48.26 15.09 48.45 15.20L48.45 15.20L48.45 15.20Q48.29 15.32 48.02 15.39L48.02 15.39L48.02 15.39Q47.75 15.46 47.54 15.46L47.54 15.46L47.54 15.46Q46.79 15.46 46.79 14.42L46.79 14.42L46.79 14.42Q46.79 13.62 47.32 12.24L47.32 12.24L47.32 12.24Q47.04 12.88 46.68 13.45L46.68 13.45L46.68 13.45Q46.31 14.01 45.93 14.45L45.93 14.45L45.93 14.45Q45.56 14.88 45.17 15.15L45.17 15.15L45.17 15.15Q44.79 15.43 44.46 15.48L44.46 15.48L44.46 15.48Q43.95 15.46 43.62 14.99L43.62 14.99L43.62 14.99Q43.30 14.52 43.30 13.79L43.30 13.79L43.30 13.79Q43.30 13.01 43.64 12.14L43.64 12.14L43.64 12.14Q43.97 11.27 44.50 10.53L44.50 10.53L44.50 10.53Q45.02 9.79 45.64 9.29L45.64 9.29L45.64 9.29Q46.26 8.79 46.83 8.76L46.83 8.76L46.83 8.76Q46.97 8.81 47.15 8.93L47.15 8.93L47.15 8.93Q47.32 9.06 47.48 9.23L47.48 9.23L47.48 9.23Q47.64 9.39 47.75 9.57L47.75 9.57L47.75 9.57Q47.87 9.74 47.88 9.87L47.88 9.87L47.88 9.87Q47.32 9.95 46.73 10.42L46.73 10.42L46.73 10.42Q46.13 10.88 45.65 11.53L45.65 11.53L45.65 11.53Q45.16 12.18 44.86 12.92L44.86 12.92L44.86 12.92Q44.55 13.66 44.55 14.31L44.55 14.31L44.55 14.31Q44.55 14.57 44.74 14.64L44.74 14.64L44.74 14.64Q45.15 14.56 45.68 13.95L45.68 13.95L45.68 13.95Q46.21 13.34 46.97 12.07L46.97 12.07L46.97 12.07Q47.11 11.82 47.29 11.51L47.29 11.51L47.29 11.51Q47.46 11.20 47.64 10.86L47.64 10.86L47.64 10.86Q47.82 10.53 48.00 10.18L48.00 10.18L48.00 10.18Q48.17 9.84 48.33 9.52ZM49.74 14.90L49.74 14.90L49.74 14.90Q49.81 14.49 49.99 13.82L49.99 13.82L49.99 13.82Q50.16 13.16 50.40 12.41L50.40 12.41L50.40 12.41Q50.64 11.66 50.90 10.91L50.90 10.91L50.90 10.91Q51.17 10.15 51.42 9.55L51.42 9.55L51.42 9.55Q51.60 9.11 51.74 8.87L51.74 8.87L51.74 8.87Q51.88 8.62 52.05 8.46L52.05 8.46L52.05 8.46Q52.25 8.48 52.46 8.55L52.46 8.55L52.46 8.55Q52.67 8.62 52.86 8.72L52.86 8.72L52.86 8.72Q53.06 8.82 53.21 8.93L53.21 8.93L53.21 8.93Q53.37 9.03 53.45 9.13L53.45 9.13L53.45 9.13Q53.07 9.58 52.79 10.15L52.79 10.15L52.79 10.15Q52.50 10.72 52.21 11.62L52.21 11.62L52.21 11.62Q52.96 10.95 53.54 10.33L53.54 10.33L53.54 10.33Q54.12 9.72 54.63 8.96L54.63 8.96L54.63 8.96Q54.71 8.89 54.92 8.89L54.92 8.89L54.92 8.89Q55.12 8.89 55.30 8.95L55.30 8.95L55.30 8.95Q55.48 9.02 55.55 9.13L55.55 9.13L55.55 9.13Q55.30 9.80 55.30 10.46L55.30 10.46L55.30 10.46Q55.30 11.07 55.48 11.38L55.48 11.38L55.48 11.38Q55.47 11.47 55.29 11.70L55.29 11.70L55.29 11.70Q55.12 11.94 54.91 12.15L54.91 12.15L54.91 12.15Q54.53 11.96 54.24 11.61L54.24 11.61L54.24 11.61Q53.94 11.27 53.80 10.86L53.80 10.86L53.80 10.86Q53.14 11.33 52.68 11.77L52.68 11.77L52.68 11.77Q52.22 12.21 51.89 12.75L51.89 12.75L51.89 12.75Q51.56 13.29 51.33 13.99L51.33 13.99L51.33 13.99Q51.10 14.69 50.89 15.65L50.89 15.65L50.89 15.65Q50.76 15.64 50.59 15.56L50.59 15.56L50.59 15.56Q50.41 15.48 50.24 15.37L50.24 15.37L50.24 15.37Q50.06 15.26 49.92 15.13L49.92 15.13L49.92 15.13Q49.78 15.01 49.74 14.90ZM57.34 9.81L56.55 9.81L56.55 9.81Q56.48 9.73 56.42 9.46L56.42 9.46L56.42 9.46Q56.36 9.18 56.36 8.99L56.36 8.99L56.36 8.99Q56.73 9.02 57.06 9.04L57.06 9.04L57.06 9.04Q57.40 9.06 57.68 9.07L57.68 9.07L57.68 9.07Q57.89 8.65 58.14 8.24L58.14 8.24L58.14 8.24Q58.38 7.83 58.61 7.48L58.61 7.48L58.61 7.48Q58.84 7.14 59.05 6.90L59.05 6.90L59.05 6.90Q59.25 6.66 59.36 6.59L59.36 6.59L59.36 6.59Q59.50 6.59 59.72 6.64L59.72 6.64L59.72 6.64Q59.93 6.69 60.16 6.77L60.16 6.77L60.16 6.77Q60.38 6.85 60.56 6.93L60.56 6.93L60.56 6.93Q60.75 7.01 60.82 7.10L60.82 7.10L60.82 7.10Q60.40 7.63 60.09 8.09L60.09 8.09L60.09 8.09Q59.79 8.54 59.44 9.13L59.44 9.13L59.44 9.13Q59.72 9.13 60.01 9.11L60.01 9.11L60.01 9.11Q60.30 9.10 60.59 9.07L60.59 9.07L60.59 9.07Q60.66 9.14 60.70 9.25L60.70 9.25L60.70 9.25Q60.75 9.35 60.75 9.46L60.75 9.46L60.75 9.46Q60.06 9.72 59.08 9.74L59.08 9.74L59.08 9.74Q58.73 10.42 58.46 11.08L58.46 11.08L58.46 11.08Q58.18 11.75 58.00 12.36L58.00 12.36L58.00 12.36Q57.81 12.98 57.70 13.52L57.70 13.52L57.70 13.52Q57.60 14.07 57.60 14.50L57.60 14.50L57.60 14.50Q57.60 15.12 58.06 15.19L58.06 15.19L58.06 15.19Q58.48 15.13 58.86 14.98L58.86 14.98L58.86 14.98Q59.23 14.83 59.53 14.59L59.53 14.59L59.53 14.59Q59.61 14.71 59.63 14.80L59.63 14.80L59.63 14.80Q59.54 14.92 59.34 15.09L59.34 15.09L59.34 15.09Q59.14 15.26 58.90 15.42L58.90 15.42L58.90 15.42Q58.66 15.58 58.44 15.69L58.44 15.69L58.44 15.69Q58.21 15.81 58.10 15.82L58.10 15.82L58.10 15.82Q57.75 15.81 57.40 15.67L57.40 15.67L57.40 15.67Q57.05 15.53 56.76 15.32L56.76 15.32L56.76 15.32Q56.48 15.11 56.29 14.85L56.29 14.85L56.29 14.85Q56.11 14.59 56.11 14.34L56.11 14.34L56.11 14.34Q56.11 14 56.20 13.49L56.20 13.49L56.20 13.49Q56.29 12.98 56.46 12.38L56.46 12.38L56.46 12.38Q56.63 11.77 56.85 11.12L56.85 11.12L56.85 11.12Q57.08 10.46 57.34 9.81L57.34 9.81ZM65.91 13.01L65.91 13.01L65.91 13.01Q65.59 14.03 65.27 14.87L65.27 14.87L65.27 14.87Q64.95 15.71 64.58 16.41L64.58 16.41L64.58 16.41Q64.22 17.12 63.80 17.72L63.80 17.72L63.80 17.72Q63.38 18.31 62.87 18.84L62.87 18.84L62.87 18.84Q62.23 19.52 61.54 19.87L61.54 19.87L61.54 19.87Q60.86 20.23 60.17 20.23L60.17 20.23L60.17 20.23Q59.82 20.23 59.48 20.15L59.48 20.15L59.48 20.15Q59.14 20.08 58.84 19.94L58.84 19.94L58.84 19.94Q58.53 19.81 58.30 19.64L58.30 19.64L58.30 19.64Q58.07 19.46 57.97 19.26L57.97 19.26L57.97 19.26Q57.97 19.10 58.17 18.97L58.17 18.97L58.17 18.97Q58.34 19.12 58.45 19.21L58.45 19.21L58.45 19.21Q58.56 19.29 58.67 19.35L58.67 19.35L58.67 19.35Q58.77 19.40 58.89 19.42L58.89 19.42L58.89 19.42Q59.01 19.43 59.16 19.43L59.16 19.43L59.16 19.43Q59.96 19.43 60.73 18.96L60.73 18.96L60.73 18.96Q61.49 18.49 62.17 17.63L62.17 17.63L62.17 17.63Q62.85 16.77 63.41 15.55L63.41 15.55L63.41 15.55Q63.97 14.32 64.36 12.81L64.36 12.81L64.36 12.81Q64.18 13.09 63.91 13.50L63.91 13.50L63.91 13.50Q63.64 13.90 63.32 14.30L63.32 14.30L63.32 14.30Q63 14.70 62.66 15.02L62.66 15.02L62.66 15.02Q62.31 15.34 61.99 15.46L61.99 15.46L61.99 15.46Q61.77 15.44 61.52 15.37L61.52 15.37L61.52 15.37Q61.28 15.29 61.06 15.15L61.06 15.15L61.06 15.15Q60.84 15.01 60.68 14.81L60.68 14.81L60.68 14.81Q60.51 14.62 60.45 14.36L60.45 14.36L60.45 14.36Q60.45 13.96 60.48 13.71L60.48 13.71L60.48 13.71Q60.51 13.47 60.58 13.17L60.58 13.17L60.58 13.17Q60.70 12.64 60.95 11.97L60.95 11.97L60.95 11.97Q61.19 11.30 61.52 10.65L61.52 10.65L61.52 10.65Q61.85 10.00 62.25 9.43L62.25 9.43L62.25 9.43Q62.65 8.86 63.08 8.54L63.08 8.54L63.08 8.54Q63.20 8.54 63.36 8.56L63.36 8.56L63.36 8.56Q63.53 8.58 63.71 8.64L63.71 8.64L63.71 8.64Q63.90 8.69 64.06 8.77L64.06 8.77L64.06 8.77Q64.23 8.85 64.36 8.97L64.36 8.97L64.36 8.97Q64.20 9.11 63.69 9.91L63.69 9.91L63.69 9.91Q63.17 10.71 62.54 12.21L62.54 12.21L62.54 12.21Q62.47 12.36 62.37 12.66L62.37 12.66L62.37 12.66Q62.27 12.95 62.18 13.27L62.18 13.27L62.18 13.27Q62.09 13.59 62.02 13.90L62.02 13.90L62.02 13.90Q61.95 14.21 61.95 14.39L61.95 14.39L61.95 14.39Q61.95 14.50 61.98 14.56L61.98 14.56L61.98 14.56Q62.02 14.62 62.05 14.64L62.05 14.64L62.05 14.64Q62.30 14.60 62.72 14.23L62.72 14.23L62.72 14.23Q63.14 13.86 63.67 13.08L63.67 13.08L63.67 13.08Q64.01 12.57 64.29 12.07L64.29 12.07L64.29 12.07Q64.57 11.58 64.84 11.07L64.84 11.07L64.84 11.07Q65.11 10.57 65.41 10.04L65.41 10.04L65.41 10.04Q65.70 9.51 66.04 8.95L66.04 8.95L66.04 8.95Q66.22 8.95 66.43 8.99L66.43 8.99L66.43 8.99Q66.64 9.03 66.84 9.09L66.84 9.09L66.84 9.09Q67.03 9.16 67.18 9.23L67.18 9.23L67.18 9.23Q67.33 9.31 67.40 9.39L67.40 9.39L67.40 9.39Q66.96 10.32 66.58 11.20L66.58 11.20L66.58 11.20Q66.21 12.08 65.91 13.01Z"></path></g><!----><!----></svg>